<?xml version="1.0" encoding="utf-8"?>
<!-- Svg Vector Icons : http://www.onlinewebfonts.com/icon -->
<!DOCTYPE svg PUBLIC "-//W3C//DTD SVG 1.1//EN" "http://www.w3.org/Graphics/SVG/1.1/DTD/svg11.dtd">
<svg version="1.1" xmlns="http://www.w3.org/2000/svg" xmlns:xlink="http://www.w3.org/1999/xlink" x="0px" y="0px" viewBox="0 0 1000 1000" enable-background="new 0 0 1000 1000" xml:space="preserve">
<metadata> Svg Vector Icons : http://www.onlinewebfonts.com/icon </metadata>
<g><g transform="translate(0.000000,511.000000) scale(0.100000,-0.100000)"><path d="M4593.9,4624.1c-1081.6-125.1-2021.8-567.4-2732.9-1285.4c-632.3-639.2-979.7-1408.1-1023.7-2265l-13.9-271L668.3,677.7C402,462.3,188.9,158.9,124.1-95.8c-88-342.8,67.2-583.6,433.1-676.3c104.2-27.8,104.2-27.8,134.3-157.5c32.4-152.8,108.9-315,199.2-419.2l60.2-71.8l-97.3-106.5c-231.6-252.5-268.7-595.2-95-870.8c48.6-76.4,69.5-145.9,81.1-268.6c67.2-667,491-1269.2,1109.4-1567.9c416.9-199.2,176-185.3,3142.8-185.3c2964.5,0,2725.9-13.9,3140.4,185.3c618.4,298.8,1049.2,907.9,1111.7,1574.9c9.3,115.8,30.1,185.3,71.8,247.8c159.8,236.2,157.5,541.9-6.9,789.7l-62.5,95l76.4,317.3l78.8,319.6l129.7,83.4c289.5,187.6,342.8,449.3,171.4,815.2c-64.9,136.7-308,453.9-391.4,507.2c-48.6,32.4-51,53.3-64.8,444.7c-9.3,271-27.8,479.4-57.9,618.4c-326.6,1517-1662.9,2700.4-3386,2999.2C5573.6,4633.4,4897.3,4658.9,4593.9,4624.1z M5557.4,4253.6c1794.9-183,3161.3-1340.9,3388.3-2876.4c20.8-134.3,37.1-328.9,37.1-433.1V756.4H5091.9H1201V944c0,569.7,194.5,1197.4,521.1,1686C2479.4,3767.2,3998.7,4411.1,5557.4,4253.6z M9130.9,272.4c247.8-192.2,407.6-421.5,407.6-586c0-111.2-95-227-183-227c-34.7,0-83.4-16.2-108.8-34.7c-62.5-46.3-247.8-44-458.6,11.6c-268.7,67.2-750.4,321.9-933.3,488.7C7739,31.5,7688.1,36.2,7505.1-40.2c-419.2-176-1162.6-166.8-1533.2,18.5c-199.2,99.6-298.8,76.4-370.6-88c-60.2-143.6-169.1-254.8-298.8-310.4c-155.2-67.2-419.2-104.2-643.9-90.3c-238.5,13.9-444.7,104.2-595.2,257.1c-152.9,157.5-199.2,169.1-372.9,85.7c-266.3-122.8-426.1-152.9-833.8-152.9c-315,0-398.4,9.3-555.8,53.3c-101.9,30.1-229.3,78.8-282.6,111.2c-53.3,30.1-120.4,55.6-148.2,55.6c-27.8,0-176-62.5-331.2-139C1221.9-394.6,1025-452.5,807.3-454.8c-312.7,0-421.5,152.8-301.1,421.5C531.7,22.3,629,140.4,721.6,233l166.8,164.4l4055.3-11.6l4055.3-11.6L9130.9,272.4z M6150.3-466.4l259.4-64.8l-493.3-704.1c-273.3-389.1-507.2-704-523.4-699.4C5337.4-1920.8,3405.8-667.9,3419.7-654c9.3,6.9,101.9,37.1,206.1,64.8l189.9,53.3l88-69.5c257.1-201.5,569.7-294.1,933.3-275.6c430.8,23.2,722.6,134.3,917.1,349.7c62.5,67.1,118.1,125,125.1,127.4C5886.2-403.9,6006.7-431.7,6150.3-466.4z M7746-468.7c145.9-106.6,567.4-321.9,750.4-384.5c92.6-32.4,264-69.5,379.8-83.4c115.8-16.2,213-30.1,217.7-32.4c4.6-2.3-9.2-74.1-30.1-155.2l-39.4-150.5l-315-25.5c-456.3-39.4-2332.2-148.2-2410.9-139c-67.1,6.9-64.8,9.3,245.5,453.9c275.6,393.7,319.6,444.7,375.2,444.7c97.3,0,484,69.5,579,104.2C7618.6-390,7644.1-394.6,7746-468.7z M2544.3-681.8l243.2-30.1l544.3-347.4c521.1-335.8,539.6-349.7,456.3-356.7c-46.3-4.6-592.9,20.8-1213.6,53.3c-1211.2,64.8-1248.3,69.5-1373.4,199.2c-57.9,62.5-127.4,203.8-148.2,310.3l-16.2,69.5l150.5,30.1c148.2,27.8,423.8,127.4,586,210.8c81.1,39.4,83.4,39.4,305.7-34.7C2210.8-623.9,2400.7-665.6,2544.3-681.8z M3005.2-1756.4l1537.8-83.4l428.5-277.9l430.8-275.6l-2082.1,4.6l-2084.4,6.9l-74.1,53.3c-143.6,101.9-189.9,389.1-83.4,532.7c69.5,95,189.9,148.2,296.4,134.3C1425.7-1668.4,2159.8-1712.4,3005.2-1756.4z M9033.7-1724c201.5-143.6,166.8-521.1-55.6-623c-95-44-164.4-46.3-1778.7-44c-924.1,0-1665.2,6.9-1649,13.9s113.5,129.7,215.4,275.6c178.3,252.4,189.9,264,271,266.3c46.3,0,643.8,34.7,1324.7,76.4C8922.5-1661.4,8943.3-1661.4,9033.7-1724z M8959.5-2775.4c0-60.2-71.8-282.5-134.3-412.2c-150.5-319.6-405.3-569.7-734.2-724.9c-328.9-152.9-254.7-148.2-2999.2-148.2c-2744.5,0-2670.3-4.6-2999.2,148.2c-333.5,157.5-581.3,400.7-734.2,724.9c-62.5,129.7-134.3,352-134.3,412.2c0,16.2,1303.9,23.2,3867.7,23.2C7655.7-2752.3,8959.5-2759.2,8959.5-2775.4z"/><path d="M4408.6,3663c-115.8-113.5-34.7-312.7,127.4-312.7c95,0,185.3,90.3,185.3,185.3c0,95-90.3,185.3-185.3,185.3C4492,3720.9,4443.4,3700.1,4408.6,3663z"/><path d="M5149.8,3663c-37.1-34.7-57.9-83.4-57.9-127.4s20.8-92.6,57.9-127.4c34.7-37.1,83.4-57.9,127.4-57.9c44,0,92.6,20.8,127.4,57.9c37,34.7,57.9,83.4,57.9,127.4s-20.8,92.6-57.9,127.4c-34.7,37.1-83.4,57.9-127.4,57.9C5233.1,3720.9,5184.5,3700.1,5149.8,3663z"/><path d="M3667.5,3477.7c-115.8-113.5-34.7-312.7,127.4-312.7c95,0,185.3,90.3,185.3,185.3c0,95-90.3,185.3-185.3,185.3C3750.9,3535.6,3702.3,3514.8,3667.5,3477.7z"/><path d="M5890.9,3477.7c-37.1-34.7-57.9-83.4-57.9-127.4c0-44,20.8-92.6,57.9-127.4c34.7-37.1,83.4-57.9,127.4-57.9c44,0,92.6,20.8,127.4,57.9c37,34.7,57.9,83.4,57.9,127.4c0,44-20.8,92.6-57.9,127.4c-34.7,37.1-83.4,57.9-127.4,57.9C5974.2,3535.6,5925.6,3514.8,5890.9,3477.7z"/><path d="M2926.4,3292.4c-115.8-113.5-34.7-312.7,127.4-312.7c95,0,185.3,90.3,185.3,185.3s-90.3,185.3-185.3,185.3C3009.8,3350.3,2961.2,3329.5,2926.4,3292.4z"/><path d="M6632,3292.4c-37-34.7-57.9-83.4-57.9-127.4s20.8-92.6,57.9-127.4c34.7-37.1,83.4-57.9,127.4-57.9s92.6,20.8,127.4,57.9c37,34.7,57.9,83.4,57.9,127.4s-20.8,92.6-57.9,127.4c-34.7,37.1-83.4,57.9-127.4,57.9S6666.7,3329.5,6632,3292.4z"/><path d="M7373.1,3107.2c-37.1-34.7-57.9-83.4-57.9-127.4c0-44,20.8-92.6,57.9-127.4c34.7-37.1,83.4-57.9,127.4-57.9s92.6,20.8,127.4,57.9c37,34.7,57.9,83.4,57.9,127.4c0,44-20.8,92.6-57.9,127.4c-34.7,37.1-83.4,57.9-127.4,57.9S7407.9,3144.2,7373.1,3107.2z"/><path d="M4223.4,2921.9c-115.8-113.5-34.7-312.7,127.4-312.7c95,0,185.3,90.3,185.3,185.3c0,95-90.3,185.3-185.3,185.3C4306.7,2979.8,4258.1,2958.9,4223.4,2921.9z"/><path d="M5149.8,2921.9c-37.1-34.7-57.9-83.4-57.9-127.4c0-44,20.8-92.6,57.9-127.4c34.7-37.1,83.4-57.9,127.4-57.9c44,0,92.6,20.8,127.4,57.9c37,34.7,57.9,83.4,57.9,127.4c0,44-20.8,92.6-57.9,127.4c-34.7,37.1-83.4,57.9-127.4,57.9C5233.1,2979.8,5184.5,2958.9,5149.8,2921.9z"/><path d="M2185.3,2736.6c-115.8-113.5-34.7-312.7,127.4-312.7c95,0,185.3,90.3,185.3,185.3c0,95-90.3,185.3-185.3,185.3C2268.7,2794.5,2220,2773.7,2185.3,2736.6z"/><path d="M3482.3,2736.6c-115.8-113.5-34.7-312.7,127.4-312.7c95,0,185.3,90.3,185.3,185.3c0,95-90.3,185.3-185.3,185.3C3565.6,2794.5,3517,2773.7,3482.3,2736.6z"/><path d="M5890.9,2736.6c-37.1-34.7-57.9-83.4-57.9-127.4c0-44,20.8-92.6,57.9-127.4c34.7-37.1,83.4-57.9,127.4-57.9c44,0,92.6,20.8,127.4,57.9c37,34.7,57.9,83.4,57.9,127.4c0,44-20.8,92.6-57.9,127.4c-34.7,37.1-83.4,57.9-127.4,57.9C5974.2,2794.5,5925.6,2773.7,5890.9,2736.6z"/><path d="M6632,2551.3c-37-34.7-57.9-83.4-57.9-127.4s20.8-92.6,57.9-127.4c34.7-37.1,83.4-57.9,127.4-57.9s92.6,20.8,127.4,57.9c37,34.7,57.9,83.4,57.9,127.4s-20.8,92.6-57.9,127.4c-34.7,37.1-83.4,57.9-127.4,57.9S6666.7,2588.4,6632,2551.3z"/><path d="M2926.4,2366.1c-115.8-113.5-34.7-312.7,127.4-312.7c95,0,185.3,90.3,185.3,185.3c0,95-90.3,185.3-185.3,185.3C3009.8,2424,2961.2,2403.1,2926.4,2366.1z"/><path d="M8114.2,2366.1c-37.1-34.7-57.9-83.4-57.9-127.4c0-44,20.8-92.6,57.9-127.4c34.7-37.1,83.4-57.9,127.4-57.9s92.6,20.8,127.4,57.9c37.1,34.7,57.9,83.4,57.9,127.4c0,44-20.8,92.6-57.9,127.4c-34.7,37.1-83.4,57.9-127.4,57.9S8149,2403.1,8114.2,2366.1z"/><path d="M4038.1,2180.8c-115.8-113.5-34.7-312.7,127.4-312.7c95,0,185.3,90.3,185.3,185.3s-90.3,185.3-185.3,185.3C4121.5,2238.7,4072.8,2217.8,4038.1,2180.8z"/><path d="M4779.2,2180.8c-115.8-113.5-34.7-312.7,127.4-312.7c44,0,92.6,20.8,127.4,57.9c37.1,34.7,57.9,83.4,57.9,127.4s-20.9,92.6-57.9,127.4c-34.7,37.1-83.4,57.9-127.4,57.9C4862.6,2238.7,4813.9,2217.8,4779.2,2180.8z"/><path d="M5520.3,2180.8c-37.1-34.7-57.9-83.4-57.9-127.4s20.8-92.6,57.9-127.4c34.7-37.1,83.4-57.9,127.4-57.9c44,0,92.6,20.8,127.4,57.9c37.1,34.7,57.9,83.4,57.9,127.4s-20.9,92.6-57.9,127.4c-34.7,37.1-83.4,57.9-127.4,57.9C5603.7,2238.7,5555.1,2217.8,5520.3,2180.8z"/><path d="M7373.1,2180.8c-37.1-34.7-57.9-83.4-57.9-127.4s20.8-92.6,57.9-127.4c34.7-37.1,83.4-57.9,127.4-57.9s92.6,20.8,127.4,57.9c37,34.7,57.9,83.4,57.9,127.4s-20.8,92.6-57.9,127.4c-34.7,37.1-83.4,57.9-127.4,57.9S7407.9,2217.8,7373.1,2180.8z"/><path d="M2000,1995.5c-115.8-113.5-34.7-312.7,127.4-312.7c95,0,185.3,90.3,185.3,185.3c0,95-90.3,185.3-185.3,185.3C2083.4,2053.4,2034.8,2032.6,2000,1995.5z"/><path d="M3482.3,1810.2c-115.8-113.5-34.7-312.7,127.4-312.7c95,0,185.3,90.3,185.3,185.3c0,95-90.3,185.3-185.3,185.3C3565.6,1868.1,3517,1847.3,3482.3,1810.2z"/><path d="M6446.7,1810.2c-37.1-34.7-57.9-83.4-57.9-127.4s20.8-92.6,57.9-127.4c34.7-37.1,83.4-57.9,127.4-57.9c44,0,92.6,20.8,127.4,57.9c37,34.7,57.9,83.4,57.9,127.4s-20.9,92.6-57.9,127.4c-34.7,37.1-83.4,57.9-127.4,57.9C6530.1,1868.1,6481.5,1847.3,6446.7,1810.2z"/></g></g>
</svg>