<?xml version="1.0" encoding="utf-8"?>
<!-- Svg Vector Icons : http://www.onlinewebfonts.com/icon -->
<!DOCTYPE svg PUBLIC "-//W3C//DTD SVG 1.1//EN" "http://www.w3.org/Graphics/SVG/1.1/DTD/svg11.dtd">
<svg version="1.1" xmlns="http://www.w3.org/2000/svg" xmlns:xlink="http://www.w3.org/1999/xlink" x="0px" y="0px" viewBox="0 0 1000 1000" enable-background="new 0 0 1000 1000" xml:space="preserve">
<metadata> Svg Vector Icons : http://www.onlinewebfonts.com/icon </metadata>
<g><g transform="translate(0.000000,512.000000) scale(0.100000,-0.100000)"><path d="M359.5,4990.7c-97.6-34.4-210.5-155-237.3-250.7c-30.6-107.2-28.7-9132.9,0-9240.1c28.7-99.5,156.9-227.7,256.4-256.4c109.1-30.6,9132.9-30.6,9242,0c99.5,28.7,227.7,156.9,256.4,256.4c30.6,109.1,30.6,9132.9,0,9242c-28.7,99.5-156.9,227.7-256.4,256.4c-55.5,15.3-1350.9,21-4630.6,21C1113.4,5017.5,424.6,5013.7,359.5,4990.7z M9492.4,4613.7c32.5-32.5,32.5-8953,0-8985.6s-8953.1-32.5-8985.6,0c-32.5,32.5-32.5,8953.1,0,8985.6C539.4,4646.3,9459.9,4646.3,9492.4,4613.7z"/><path d="M4856.1,4223.4c-176-42.1-223.9-59.3-319.6-109.1c-143.5-72.7-317.6-246.8-394.2-390.4c-288.9-541.5-17.2-1213.1,562.6-1396.8l103.3-32.5v-308.1v-310l-109.1-24.9c-367.4-80.4-727.1-348.3-889.8-662.1c-34.4-67-76.5-122.5-91.8-122.5c-36.3,0-652.5,166.5-665.9,179.9c-5.7,5.7-13.4,61.2-17.2,120.6c-15.3,239.2-128.2,470.7-306.2,637.2c-199,187.5-399.9,267.9-665.9,267.9c-438.2,0-815.1-281.3-939.5-700.3c-42.1-139.7-44-401.8-1.9-535.8c111-371.2,424.8-644.8,799.8-700.3c352.1-53.6,721.4,103.3,928,392.3c40.2,55.5,78.4,107.2,86.1,116.7c7.6,9.6,166.5-24.9,355.9-74.6l340.6-91.8l3.8-174.1c3.8-363.6,132-679.3,378.9-935.7l88-91.8l-254.5-392.3c-235.4-363.6-258.3-390.4-302.3-380.8c-204.7,45.9-313.8,53.6-455.4,32.5c-474.5-72.7-826.6-480.3-826.6-958.7c0-434.4,267.9-801.7,683.1-933.8c510.9-160.7,1063.9,130.1,1224.6,644.8c23,70.8,32.5,168.4,32.5,296.6c-1.9,256.4-65.1,426.7-239.2,644.8l-42.1,51.7l252.6,390.3l254.5,390.4l145.4-47.8c132-45.9,178-49.8,424.8-49.8c246.8,0,292.8,3.8,424.8,49.8l145.4,47.8l254.5-390.4l252.6-390.3l-42.1-51.7c-174.1-218.1-237.3-388.4-239.2-644.8c0-300.4,82.3-505.2,283.2-704.1c260.2-254.5,631.4-344.4,973.9-237.3c415.2,132,683.1,499.4,683.1,933.8c0,478.4-352.1,885.9-826.6,958.7c-141.6,21-250.7,13.4-455.4-32.5c-44-9.6-67,17.2-302.3,380.8l-254.5,392.3l88,91.8c246.8,256.4,375,572.1,378.9,935.7l3.8,174.1l340.6,91.8c189.4,49.8,348.3,84.2,355.9,74.6c7.6-9.6,45.9-61.2,86.1-116.7C7496.7,44.4,8200.8-11.1,8625.6,413.7c193.3,193.3,283.2,407.6,283.2,683.1c1.9,445.8-277.5,817.1-711.8,945.2c-133.9,40.2-386.5,40.2-520.4,0c-396.1-118.6-685-472.6-711.8-874.4c-3.8-59.3-11.5-114.8-17.2-120.6c-13.4-13.4-629.5-179.9-665.9-179.9c-15.3,0-57.4,55.5-91.8,122.5c-162.6,313.8-522.4,581.7-887.9,662.1l-111,24.9v310v308.1l103.3,32.5c398,126.3,681.2,510.9,681.2,922.3c-1.9,424.8-269.8,799.8-667.8,931.9C5202.5,4217.7,4932.7,4242.5,4856.1,4223.4z M5261.8,3779.5c398-204.7,428.6-765.4,57.4-1008.4c-57.4-36.4-147.3-72.7-208.6-86.1c-147.3-28.7-298.5,1.9-430.5,86.1c-399.9,262.1-327.2,868.7,122.5,1035.2C4911.6,3846.5,5160.4,3831.1,5261.8,3779.5z M2303.6,1630.7c206.7-89.9,354-338.7,336.8-568.3c-17.2-225.8-139.7-398-354-497.5c-86.1-38.3-124.4-45.9-248.8-38.3c-229.6,9.6-392.3,112.9-497.5,311.9c-70.8,132-74.6,377-7.7,509C1674.1,1638.3,2005.1,1758.9,2303.6,1630.7z M8187.5,1624.9c116.7-53.6,220-156.9,279.4-277.5c67-132,63.1-377-7.7-509c-105.2-199-267.9-302.3-497.5-311.9c-124.4-7.7-162.6,0-248.8,38.3c-214.3,99.5-336.8,271.7-354,497.5c-21,277.5,172.2,539.6,447.8,608.5C7910,1695.7,8074.6,1676.6,8187.5,1624.9z M5290.5,1249.9c700.3-216.2,914.6-1109.8,394.2-1626.4c-380.8-375-989.2-375-1370,0c-518.5,514.7-315.7,1385.3,378.9,1620.7C4860,1301.6,5116.4,1303.5,5290.5,1249.9z M3503.3-1905.4c91.9-47.8,208.6-164.6,258.3-260.2c26.8-51.7,42.1-126.3,47.8-231.5c7.7-137.8,1.9-170.3-38.3-260.2c-116.7-252.6-382.7-392.3-641-340.6c-252.6,51.7-421,222-466.9,470.7c-57.4,313.8,164.6,629.5,478.4,675.5C3252.7-1834.6,3413.4-1859.5,3503.3-1905.4z M7012.6-1899.6c174.1-89.9,283.2-231.5,321.5-413.3c65.1-321.5-135.8-618-465-685c-258.3-51.7-524.3,88-641,340.6c-40.2,89.9-45.9,122.5-38.3,260.2c5.7,105.2,21,179.9,47.8,231.5c49.7,95.7,166.5,212.4,258.3,260.2C6641.4-1830.8,6874.8-1828.9,7012.6-1899.6z"/></g></g>
</svg>