<?xml version="1.0" encoding="utf-8"?>
<!-- Svg Vector Icons : http://www.onlinewebfonts.com/icon -->
<!DOCTYPE svg PUBLIC "-//W3C//DTD SVG 1.1//EN" "http://www.w3.org/Graphics/SVG/1.1/DTD/svg11.dtd">
<svg version="1.1" xmlns="http://www.w3.org/2000/svg" xmlns:xlink="http://www.w3.org/1999/xlink" x="0px" y="0px" viewBox="0 0 1000 1000" enable-background="new 0 0 1000 1000" xml:space="preserve">
<metadata> Svg Vector Icons : http://www.onlinewebfonts.com/icon </metadata>
<g><path d="M10,416.9c0,51.5,39.1,94.5,91.9,106.9v363.9H40.6c-16.9,0-30.6,12.4-30.6,27.7S23.8,943,40.6,943h918.8c17,0,30.6-12.4,30.6-27.7c0-15.3-13.6-27.7-30.6-27.7h-61.3V523.8c52.8-12.4,91.9-55.3,91.9-106.9v-27.7H10V416.9z M622.5,527.7c67.7,0,122.5-49.6,122.5-110.8c0,51.5,39.1,94.5,91.9,106.9v363.9H377.5v-360c67.7,0,122.5-49.6,122.5-110.8C500,478.1,554.9,527.7,622.5,527.7z M346.9,523.8v363.9H163.1V523.8c52.8-12.4,91.9-55.3,91.9-106.9C255,468.5,294.1,511.4,346.9,523.8z M867.5,140h-735L10,361.5h980L867.5,140z M268.8,201.6l-61.3,110.8c-2.7,4.9-8.1,7.7-13.8,7.7c-2.3,0-4.6-0.4-6.8-1.5c-7.5-3.4-10.6-11.7-6.8-18.6l61.3-110.8c3.8-6.8,13-9.6,20.5-6.2C269.5,186.4,272.5,194.8,268.8,201.6z M391.3,201.6L330,312.3c-2.7,4.9-8.1,7.7-13.8,7.7c-2.3,0-4.6-0.4-6.8-1.5c-7.5-3.4-10.6-11.7-6.8-18.6l61.3-110.8c3.8-6.8,13-9.6,20.5-6.2C392,186.4,395,194.8,391.3,201.6z M515.3,306.2c0,7.7-6.8,13.9-15.3,13.9c-8.4,0-15.3-6.2-15.3-13.9V195.4c0-7.7,6.9-13.9,15.3-13.9c8.5,0,15.3,6.2,15.3,13.9V306.2z M691.2,318.3c-2.4,1.2-4.9,1.7-7.4,1.7c-5.4,0-10.7-2.6-13.4-7.2l-67-110.8c-4.1-6.7-1.3-15.1,6.1-18.8c7.3-3.7,16.7-1.3,20.8,5.5l67,110.8C701.2,306.2,698.6,314.7,691.2,318.3z M813.1,318.6c-2.2,1-4.4,1.5-6.8,1.5c-5.6,0-11-2.8-13.6-7.7l-61.3-110.8c-3.8-6.8-0.7-15.1,6.8-18.6c7.4-3.4,16.7-0.7,20.6,6.2L820,300C823.7,306.8,820.7,315.2,813.1,318.6z M270.3,725.7v-63.8c-9-4.9-15.3-13.3-15.3-23.5c0-15.3,13.8-27.7,30.6-27.7c17,0,30.6,12.4,30.6,27.7c0,10.2-6.3,18.6-15.3,23.5v63.8c9,4.9,15.3,13.3,15.3,23.5c0,15.3-13.6,27.7-30.6,27.7c-16.9,0-30.6-12.4-30.6-27.7C255,739.1,261.3,730.6,270.3,725.7z M132.5,84.6c0-15.3,13.8-27.7,30.6-27.7h673.8c17,0,30.6,12.4,30.6,27.7s-13.6,27.7-30.6,27.7H163.1C146.3,112.3,132.5,99.9,132.5,84.6z M546.8,675.9l-21.6-19.6l86.6-78.3l21.6,19.6L546.8,675.9z M546.8,754.2l-21.6-19.6L698.3,578l21.6,19.6L546.8,754.2z M698.4,656.3l21.6,19.6l-86.6,78.3l-21.6-19.6L698.4,656.3z"/></g>
</svg>